<svg width="126" height="24" viewBox="0 0 126 24" fill="none" xmlns="http://www.w3.org/2000/svg">
<path d="M10.74 17.751C16.815 11.24 16.41 6.538 15.626 4.311C15.2615 3.20984 14.601 2.23023 13.7168 1.47952C12.8325 0.728818 11.7587 0.23597 10.613 0.0549927C10.3479 0.0186478 10.0806 0.000279916 9.813 0C8.8675 0.0103983 7.93857 0.249591 7.10564 0.697144C6.2727 1.1447 5.56053 1.7873 5.03 2.57001C4.03464 4.02076 3.58671 5.7778 3.76601 7.52802C4.13501 11.79 6.123 14.235 8.427 17.061C7.66673 18.0257 6.70971 18.8174 5.61964 19.3835C4.52958 19.9496 3.33145 20.277 2.105 20.344C1.81087 20.344 1.52879 20.4608 1.32082 20.6688C1.11284 20.8768 0.996002 21.1589 0.996002 21.453C0.996002 21.7471 1.11284 22.0292 1.32082 22.2372C1.52879 22.4452 1.81087 22.562 2.105 22.562C5.282 22.562 8.263 20.904 10.72 17.771L10.74 17.751ZM9.905 15.361C7.792 12.761 6.279 10.791 5.979 7.336C5.84538 6.10991 6.15081 4.87615 6.841 3.854C7.20852 3.28781 7.72872 2.8371 8.34149 2.55399C8.95427 2.27087 9.63463 2.16687 10.304 2.254C11.0473 2.37936 11.7417 2.70696 12.3111 3.20087C12.8805 3.69477 13.3029 4.33589 13.532 5.05399C14.508 7.81699 13.191 11.532 9.90601 15.361H9.905Z" fill="#FF5C00"/>
<path d="M31.563 4.31201C31.1987 3.21066 30.5382 2.23084 29.654 1.47995C28.7697 0.729059 27.6958 0.236054 26.55 0.0549927C26.2849 0.0186326 26.0176 0.000264644 25.75 0C24.8045 0.0103983 23.8756 0.249591 23.0426 0.697144C22.2097 1.1447 21.4975 1.7873 20.967 2.57001C19.9728 4.0213 19.525 5.77789 19.703 7.52802C20.072 11.792 22.06 14.238 24.364 17.063C22.064 19.695 19.226 20.818 16.47 20.163C15.5913 19.9384 14.7653 19.5433 14.039 19L13.493 18.606C13.2543 18.4336 12.9569 18.3631 12.6662 18.41C12.3755 18.4569 12.1154 18.6173 11.943 18.856C11.7706 19.0947 11.7001 19.3921 11.747 19.6828C11.7939 19.9735 11.9543 20.2336 12.193 20.406L12.739 20.806C13.7013 21.5175 14.794 22.0329 15.955 22.323C16.6236 22.4828 17.3086 22.5637 17.996 22.564C19.6227 22.4966 21.2142 22.0689 22.6555 21.3118C24.0969 20.5547 25.3523 19.4871 26.331 18.186C26.666 17.786 27.018 17.393 27.364 16.998C32.719 10.875 32.315 6.45101 31.563 4.31201ZM25.846 15.361C23.73 12.761 22.216 10.791 21.917 7.336C21.7845 6.10998 22.0898 4.87662 22.779 3.854C23.1467 3.28798 23.6669 2.83742 24.2796 2.55432C24.8924 2.27122 25.5726 2.16711 26.242 2.254C26.9853 2.37988 27.6797 2.70761 28.2493 3.20142C28.819 3.69522 29.2419 4.33608 29.472 5.05399C30.445 7.81699 29.128 11.532 25.845 15.361H25.846Z" fill="#FF5C00"/>
<path d="M32.61 21.053C32.5643 21.3017 32.435 21.5274 32.2435 21.6925C32.052 21.8577 31.8097 21.9524 31.557 21.961C31.4579 21.964 31.3588 21.9546 31.262 21.933C30.1501 21.6868 29.105 21.2019 28.199 20.512C27.9551 20.3441 27.7847 20.0893 27.7228 19.7998C27.6609 19.5102 27.7121 19.2079 27.866 18.955C27.9489 18.831 28.0559 18.7251 28.1807 18.6435C28.3055 18.5618 28.4454 18.5062 28.5922 18.48C28.739 18.4538 28.8896 18.4574 29.0349 18.4908C29.1802 18.5241 29.3173 18.5865 29.438 18.674C30.1088 19.2021 30.8892 19.5735 31.722 19.761C32.0058 19.8245 32.255 19.993 32.4197 20.2326C32.5844 20.4723 32.6524 20.7653 32.61 21.053V21.053Z" fill="#FF5C00"/>
<path d="M35.282 22.646C35.8945 22.646 36.391 22.1495 36.391 21.537C36.391 20.9245 35.8945 20.428 35.282 20.428C34.6695 20.428 34.173 20.9245 34.173 21.537C34.173 22.1495 34.6695 22.646 35.282 22.646Z" fill="#FF5C00"/>
<path d="M60.584 7.047C61.6957 6.40897 62.9667 6.10224 64.247 6.163C65.2254 6.13747 66.1987 6.31237 67.107 6.67697C67.8667 6.9947 68.5349 7.49727 69.051 8.13898C69.5721 8.80763 69.9444 9.57986 70.143 10.404C70.378 11.3714 70.4912 12.3645 70.48 13.36V22.614H67.68V13.006C67.759 11.8684 67.4285 10.7401 66.748 9.82498C66.393 9.44472 65.957 9.14914 65.4724 8.96011C64.9877 8.77109 64.4667 8.69346 63.948 8.73297C63.1516 8.70464 62.3608 8.87656 61.648 9.23297C61.0533 9.55019 60.5499 10.0147 60.186 10.582C59.802 11.2012 59.5403 11.8882 59.415 12.606C59.261 13.4377 59.186 14.2821 59.191 15.128V22.615H56.427V13.007C56.5122 11.867 56.1806 10.7349 55.494 9.82099C55.1302 9.43999 54.6864 9.14443 54.1946 8.9556C53.7029 8.76677 53.1753 8.68936 52.65 8.72897C51.8596 8.69974 51.0747 8.87179 50.369 9.22897C49.7801 9.55012 49.2867 10.0214 48.939 10.595C48.5673 11.2228 48.3166 11.9148 48.2 12.635C48.0576 13.4572 47.988 14.2905 47.992 15.125V22.612H45.229V6.54898H47.895C47.8942 6.71114 47.9381 6.87036 48.0219 7.00919C48.1057 7.14801 48.2262 7.26105 48.37 7.33588C48.5139 7.4107 48.6756 7.44442 48.8373 7.43332C48.9991 7.42222 49.1547 7.36675 49.287 7.27298C49.4887 7.12602 49.6999 6.99241 49.919 6.87299C50.8706 6.37923 51.9323 6.13592 53.004 6.16599C54.1799 6.11335 55.3444 6.41581 56.346 7.034C57.1966 7.60476 57.8658 8.40748 58.274 9.34699C58.8724 8.42532 59.6598 7.64135 60.584 7.047V7.047Z" fill="black"/>
<path d="M87.257 22.614H84.59V22.568C84.5865 22.4001 84.5361 22.2366 84.4445 22.0958C84.3528 21.9551 84.2237 21.8428 84.0716 21.7716C83.9195 21.7004 83.7505 21.6733 83.5837 21.6931C83.417 21.713 83.2591 21.7791 83.128 21.884C82.9196 22.0468 82.6997 22.1942 82.47 22.325C81.5384 22.8078 80.4975 23.0404 79.449 23C78.4738 23.0313 77.5034 22.8505 76.605 22.47C75.8809 22.145 75.2466 21.6487 74.757 21.024C74.2683 20.3758 73.9233 19.6309 73.745 18.839C73.5342 17.9279 73.4318 16.9951 73.44 16.06V6.54599H76.268V16.057C76.2633 16.6498 76.3169 17.2417 76.428 17.824C76.5192 18.321 76.7167 18.7924 77.007 19.206C77.2959 19.6001 77.684 19.9107 78.132 20.106C78.7881 20.3497 79.4871 20.4569 80.1861 20.4209C80.8851 20.385 81.5693 20.2067 82.197 19.897C82.7773 19.5537 83.2595 19.0667 83.597 18.483C83.9548 17.8517 84.1943 17.1603 84.304 16.443C84.4346 15.6463 84.4992 14.8403 84.497 14.033V6.54599H87.257V22.614Z" fill="black"/>
<path d="M89.052 6.54599H92.295L97.211 18.82L102.159 6.54599H105.373L98.744 21.612C98.6132 21.9094 98.3987 22.1622 98.1267 22.3398C97.8547 22.5174 97.5369 22.6119 97.212 22.612V22.612C96.887 22.6121 96.5689 22.5176 96.2967 22.3401C96.0245 22.1625 95.8099 21.9095 95.679 21.612L89.052 6.54599Z" fill="black"/>
<path d="M108.348 7.28801C109.682 6.45453 111.244 6.06102 112.814 6.16301C115.042 6.16301 116.675 6.68232 117.714 7.72099C118.26 8.31968 118.679 9.02239 118.947 9.78703C119.215 10.5517 119.326 11.3625 119.273 12.171V22.614H116.509C116.511 22.4419 116.466 22.2726 116.379 22.1242C116.292 21.9758 116.166 21.8539 116.015 21.7716C115.864 21.6894 115.693 21.6499 115.521 21.6573C115.349 21.6648 115.182 21.719 115.039 21.814C114.811 21.973 114.572 22.1163 114.324 22.243C113.366 22.7165 112.308 22.9531 111.239 22.933C110.446 22.9474 109.656 22.8166 108.91 22.547C108.279 22.3165 107.701 21.9615 107.21 21.503C106.747 21.0608 106.386 20.5239 106.15 19.929C105.9 19.3004 105.774 18.6294 105.78 17.953C105.767 17.2689 105.899 16.5898 106.166 15.96C106.418 15.3889 106.79 14.8791 107.258 14.466C107.742 14.0393 108.296 13.7008 108.897 13.466C109.556 13.2111 110.249 13.0541 110.953 13L115.483 12.55C116.169 12.4833 116.512 12.1943 116.511 11.683V11.265C116.523 10.8996 116.449 10.5364 116.296 10.2044C116.143 9.8725 115.914 9.58095 115.628 9.35301C114.842 8.8131 113.896 8.55798 112.945 8.62999C111.972 8.59384 111.009 8.83339 110.166 9.321C109.79 9.56461 109.473 9.8881 109.237 10.2684C109.001 10.6487 108.852 11.0764 108.8 11.521L106.358 10.204C106.648 9.02386 107.355 7.9883 108.348 7.28801V7.28801ZM111.272 15.578C110.535 15.6131 109.835 15.9091 109.296 16.413C108.889 16.8354 108.664 17.4005 108.669 17.987C108.661 18.3067 108.724 18.6243 108.855 18.9163C108.985 19.2083 109.18 19.4672 109.424 19.674C110.064 20.157 110.857 20.3912 111.657 20.333C112.36 20.3456 113.058 20.2202 113.713 19.964C114.28 19.7386 114.798 19.4058 115.239 18.984C115.64 18.6004 115.962 18.1417 116.187 17.634C116.397 17.1583 116.507 16.6441 116.508 16.124V14.935L111.272 15.578Z" fill="black"/>
<path d="M125.652 22.615H122.824V0.119987H125.652V22.615Z" fill="black"/>
<path d="M31.563 4.31201C31.1987 3.21066 30.5382 2.23084 29.654 1.47995C28.7697 0.729059 27.6958 0.236054 26.55 0.0549927C26.2849 0.0186326 26.0176 0.000264644 25.75 0C24.8045 0.0103983 23.8756 0.249591 23.0426 0.697144C22.2097 1.1447 21.4975 1.7873 20.967 2.57001C19.9728 4.0213 19.525 5.77789 19.703 7.52802C20.072 11.792 22.06 14.238 24.364 17.063C22.064 19.695 19.226 20.818 16.47 20.163C15.5913 19.9384 14.7653 19.5433 14.039 19L13.493 18.606C13.2543 18.4336 12.9569 18.3631 12.6662 18.41C12.3755 18.4569 12.1154 18.6173 11.943 18.856C11.7706 19.0947 11.7001 19.3921 11.747 19.6828C11.7939 19.9735 11.9543 20.2336 12.193 20.406L12.739 20.806C13.7013 21.5175 14.794 22.0329 15.955 22.323C16.6236 22.4828 17.3086 22.5637 17.996 22.564C19.6227 22.4966 21.2142 22.0689 22.6556 21.3118C24.0969 20.5547 25.3523 19.4871 26.331 18.186C26.666 17.786 27.018 17.393 27.364 16.998C32.719 10.875 32.315 6.45101 31.563 4.31201ZM25.846 15.361C23.73 12.761 22.216 10.791 21.917 7.336C21.7845 6.10998 22.0899 4.87662 22.779 3.854C23.1467 3.28798 23.6669 2.83742 24.2796 2.55432C24.8924 2.27122 25.5727 2.16711 26.242 2.254C26.9853 2.37988 27.6797 2.70761 28.2493 3.20142C28.819 3.69522 29.2419 4.33608 29.472 5.05399C30.445 7.81699 29.128 11.532 25.845 15.361H25.846Z" fill="#FF5C00"/>
</svg>
